# xmcd
#
# Track frame offsets:
#	150
#	7671
#	34728
#	52739
#	74392
#	88541
#	112208
#	131101
#	153119
#	166688
#	188303
#	208602
#	228786
#	249037
#	268391
#
# Disc length: 3926 seconds
#
# Revision: 327622
# Processed by: cddbd v1.5.2PL0 Copyright (c) Steve Scherf et al.
# Submitted via: EZCDAudioConverter 8.0.2.1
#
DISCID=b10f540f
DTITLE=Đàm Vĩnh Hưng - Dạ Khúc Cho Tình Nhân 6. Xóa Tên người Tình
DYEAR=2013
DGENRE=Pop
TTITLE0=Lời bạt
TTITLE1=Xóa Tên người Tình
TTITLE2=Trong tầm mắt đời
TTITLE3=Tình yêu trả lại trăng sao
TTITLE4=Giã từ đêm mưa
TTITLE5=Cây đàn bỏ quên
TTITLE6=Bài tango tím
TTITLE7=Nếu đời không có anh
TTITLE8=Yêu em dài lâu
TTITLE9=Đèn khuya
TTITLE10=Biết nói gì đây
TTITLE11=Sương lạnh chiều đông
TTITLE12=Dù anh nghèo
TTITLE13=Về đâu mái tóc người thương
TTITLE14=Dấu chân kỷ niệm
EXTD=
EXTT0=
EXTT1=
EXTT2=
EXTT3=
EXTT4=
EXTT5=
EXTT6=
EXTT7=
EXTT8=
EXTT9=
EXTT10=
EXTT11=
EXTT12=
EXTT13=
EXTT14=
PLAYORDER=
